<?xml version="1.0" standalone="no"?>
<!DOCTYPE svg PUBLIC "-//W3C//DTD SVG 20010904//EN"
 "http://www.w3.org/TR/2001/REC-SVG-20010904/DTD/svg10.dtd">
<svg version="1.0" xmlns="http://www.w3.org/2000/svg"
 width="812.000000pt" height="300.000000pt" viewBox="0 0 812.000000 300.000000"
 preserveAspectRatio="xMidYMid meet">
<metadata>
Created by potrace 1.13, written by Peter Selinger 2001-2015
</metadata>
<g transform="translate(0.000000,300.000000) scale(0.100000,-0.100000)"
fill="#000000" stroke="none">
<path d="M1475 2956 c-72 -36 -156 -115 -210 -196 -60 -90 -119 -220 -135
-294 -14 -69 -6 -182 16 -236 15 -34 14 -36 -13 -58 -60 -50 -181 -140 -242
-182 l-65 -43 -50 11 c-28 7 -97 21 -154 32 -117 22 -182 16 -239 -23 -37 -24
-73 -89 -73 -129 0 -26 40 -110 67 -140 13 -15 7 -20 -74 -64 -48 -26 -125
-72 -170 -101 -112 -72 -126 -101 -73 -155 39 -39 58 -35 175 41 50 32 131 80
181 106 l92 47 63 -49 c166 -129 360 -208 616 -253 80 -14 326 -14 445 1 51 6
122 20 158 32 98 33 246 120 338 198 89 75 120 88 106 42 -21 -72 -2 -119 70
-177 36 -29 43 -31 124 -30 111 0 217 25 351 80 86 36 108 41 116 31 18 -25
74 -47 118 -47 48 0 172 37 240 71 91 47 239 153 287 207 27 30 52 54 54 51 3
-2 -4 -36 -15 -74 -11 -39 -20 -100 -21 -137 -1 -77 13 -107 65 -139 65 -41
237 -4 358 76 l40 26 25 -30 c13 -16 41 -35 60 -41 72 -24 195 15 273 85 l42
38 32 -31 c18 -16 52 -40 76 -53 90 -46 268 -20 382 57 28 19 53 34 56 34 3 0
18 -11 34 -25 58 -48 169 -58 292 -26 l68 18 36 -29 c20 -16 46 -30 57 -33 12
-2 47 -9 79 -15 31 -6 57 -14 57 -18 0 -4 -190 -22 -422 -40 -455 -36 -596
-49 -953 -87 -226 -25 -832 -91 -910 -100 -1128 -130 -1921 -184 -2695 -185
-162 0 -313 -5 -335 -10 -47 -11 -75 -41 -75 -82 0 -73 110 -113 590 -213 124
-25 340 -71 480 -100 680 -144 897 -188 1380 -279 795 -149 1229 -209 1875
-261 313 -25 497 -30 1000 -30 755 1 1226 38 1705 136 268 55 507 127 624 187
86 45 177 128 205 187 92 197 -118 364 -688 546 -166 53 -424 124 -601 164
-80 19 -156 38 -170 43 -28 10 372 20 1034 25 l388 3 24 27 c13 16 24 34 24
42 0 27 -23 65 -44 72 -24 8 -886 6 -1153 -3 -101 -4 -279 -3 -397 1 l-215 7
-31 29 c-18 18 -41 29 -60 30 -16 1 -38 2 -47 2 -10 0 -56 -2 -103 -6 -67 -6
-95 -4 -130 8 -25 9 -94 20 -155 25 -60 4 -123 13 -138 19 -16 6 -40 11 -53
11 -24 0 -24 1 -10 22 38 54 3 118 -64 118 -23 0 -54 -11 -85 -31 -51 -32 -72
-42 -117 -53 -26 -6 -28 -4 -28 22 0 15 -7 37 -15 49 -24 35 -64 37 -149 9
-42 -14 -81 -26 -86 -26 -5 0 -30 20 -55 44 -51 50 -107 73 -201 82 -35 4 -64
8 -64 11 0 2 23 48 50 103 54 108 84 213 74 257 -25 105 -134 95 -257 -24 -29
-29 -66 -75 -81 -103 -33 -60 -66 -209 -66 -297 l0 -62 -72 -62 c-75 -64 -130
-94 -156 -84 -23 9 -10 108 32 247 20 65 36 126 36 136 0 49 -89 82 -122 45
-25 -28 -53 -93 -73 -163 -19 -73 -55 -148 -93 -198 -28 -37 -172 -112 -215
-112 -24 0 -25 2 -20 38 3 20 17 69 30 107 32 94 42 230 19 275 -9 18 -16 51
-16 72 0 51 -14 77 -52 93 -38 15 -81 5 -116 -27 -20 -20 -23 -29 -18 -66 8
-56 -16 -104 -98 -195 -63 -71 -162 -145 -256 -192 -65 -33 -161 -67 -168 -60
-3 3 31 42 75 88 111 113 156 216 119 272 -23 35 -56 46 -101 34 -31 -9 -40
-7 -57 8 -17 15 -38 18 -152 18 -135 0 -195 -11 -271 -48 -43 -21 -204 -135
-247 -174 -14 -14 -33 -23 -42 -21 -13 2 -10 13 19 56 100 148 169 300 257
567 71 217 80 276 48 332 -27 49 -66 73 -117 73 -31 0 -66 -18 -188 -94 -309
-193 -550 -322 -731 -390 -67 -25 -214 -59 -214 -49 0 3 27 35 61 71 75 83
165 216 216 318 34 71 38 86 37 154 -1 130 -56 201 -163 208 -45 3 -66 -2
-106 -22z m119 -148 c15 -59 -11 -123 -110 -273 -60 -91 -188 -234 -200 -222
-4 4 -9 31 -12 60 -5 60 24 145 86 252 49 84 65 104 130 158 63 52 96 60 106
25z m941 -266 c-39 -130 -128 -377 -163 -453 -49 -106 -121 -222 -192 -313
l-53 -68 -106 6 c-272 16 -332 24 -608 86 -237 53 -383 91 -383 100 0 4 17 19
38 32 20 14 75 55 121 92 l83 67 49 -11 c133 -32 402 44 679 193 118 63 418
238 485 284 27 18 53 33 57 33 4 0 1 -21 -7 -48z m-1490 -808 c380 -97 592
-140 785 -157 l135 -13 -60 -39 c-131 -85 -261 -115 -503 -116 -165 -1 -276
18 -437 73 -90 30 -235 104 -279 141 l-39 34 98 61 c55 34 104 62 110 62 7 0
92 -21 190 -46z m1895 17 c0 -5 -9 -29 -20 -55 -17 -38 -32 -52 -88 -85 -159
-95 -430 -164 -448 -116 -8 19 52 95 74 95 23 0 343 111 412 143 62 29 70 31
70 18z m3410 -470 c0 -22 53 -70 102 -93 89 -42 120 -51 359 -107 301 -71 707
-198 871 -274 141 -65 248 -146 248 -186 0 -33 -64 -95 -138 -134 -264 -138
-869 -254 -1552 -297 -270 -18 -1131 -21 -1400 -5 -473 27 -950 76 -1400 145
-118 18 -540 90 -610 105 -14 3 -77 14 -140 26 -63 11 -133 24 -155 29 -22 5
-114 23 -205 40 -236 45 -360 70 -689 140 -52 11 -246 52 -430 90 -426 89
-421 88 -296 90 55 1 107 3 115 4 8 2 122 6 252 10 130 4 247 9 260 11 13 2
79 6 148 10 69 3 145 8 170 10 25 3 108 9 185 15 323 25 1050 97 1400 140 393
48 1322 142 1640 165 44 3 134 10 200 16 174 14 229 18 330 23 50 3 131 8 180
12 303 20 555 27 555 15z"/>
<path d="M4111 2394 c-34 -43 -26 -86 20 -110 53 -27 109 8 109 68 0 65 -89
93 -129 42z"/>
</g>
</svg>
